<svg width="68" height="68" viewBox="0 0 68 68" fill="none" xmlns="http://www.w3.org/2000/svg">
<path d="M12.6085 11.2215L12.6002 11.2298L11.2103 12.6224C9.8066 14.0289 9.43633 16.1787 10.2902 17.972L13.6392 25.0099C13.7497 25.2448 13.7083 25.452 13.653 25.5819C13.5977 25.7145 13.4817 25.8914 13.2357 25.977L5.89113 28.591C4.02043 29.257 2.7604 31.0393 2.76316 33.0288L2.76316 34.9962C2.76316 36.9829 4.02318 38.7652 5.89664 39.4311L13.2413 42.0396C13.4844 42.1253 13.6033 42.3021 13.6585 42.4347C13.7138 42.5674 13.7552 42.7746 13.6447 43.0095L10.3012 50.0502C9.44737 51.8435 9.82042 53.9933 11.2269 55.3998L12.6196 56.7897C14.0233 58.1934 16.1758 58.5636 17.9691 57.7098L25.0071 54.3608C25.2419 54.2503 25.4492 54.2917 25.5818 54.347C25.7144 54.4022 25.8913 54.5183 25.9769 54.7642L28.5909 62.1089C29.2569 63.9823 31.0391 65.2368 33.0287 65.2368L34.9961 65.2368C36.9828 65.2368 38.7651 63.9768 39.431 62.1033L42.0395 54.7587C42.1252 54.5155 42.302 54.3995 42.4347 54.3415C42.5673 54.2862 42.7745 54.2447 43.0094 54.3553L50.0501 57.6988C51.8406 58.5498 53.9877 58.1796 55.3941 56.7814L55.4024 56.7731L56.7923 55.3832C58.1988 53.9767 58.5663 51.8269 57.7125 50.0308L54.3635 42.9929C54.2529 42.7581 54.2944 42.5508 54.3497 42.4182C54.4049 42.2855 54.521 42.1115 54.7641 42.023L62.1088 39.409C63.9822 38.7403 65.2395 36.9581 65.2367 34.9713L65.2367 33.0039C65.2367 31.0171 63.9767 29.2349 62.1032 28.5689L54.7586 25.9605C54.5154 25.8748 54.3966 25.698 54.3414 25.5653C54.2861 25.4327 54.2446 25.2254 54.3552 24.9906L57.6987 17.9499C58.5525 16.1566 58.1795 14.0068 56.773 12.6003L55.3803 11.2104C53.9738 9.80669 51.8241 9.43642 50.0307 10.2903L42.9928 13.6393C42.758 13.7498 42.5507 13.7084 42.4181 13.6531C42.2854 13.5978 42.1086 13.4818 42.0229 13.2359L39.4089 5.89122C38.743 4.01775 36.958 2.76049 34.9712 2.76325L33.0038 2.76325C31.0171 2.76325 29.2348 4.02328 28.5688 5.89398L25.9604 13.2414C25.8747 13.4845 25.6979 13.6033 25.5652 13.6586C25.4326 13.7139 25.2254 13.7553 24.9905 13.6448L17.9498 10.3013C16.1592 9.45024 14.0122 9.81775 12.6057 11.2187L12.6085 11.2215ZM15.9907 16.198L16.1841 16.0046L22.4594 18.9833C24.1477 19.7847 26.104 19.8344 27.8311 19.1187C29.5581 18.4031 30.9065 16.9828 31.531 15.2226L33.8549 8.67654L34.1284 8.67654L36.4578 15.2226C37.0851 16.9828 38.4335 18.4031 40.1605 19.116C41.8875 19.8316 43.8439 19.7791 45.5322 18.9778L51.8047 15.9935L51.9982 16.187L49.0194 22.4622C48.2181 24.1506 48.1683 26.1069 48.884 27.8339C49.5997 29.5609 51.02 30.9094 52.7801 31.5339L59.3262 33.8605L59.3262 34.1341L52.7801 36.4634C51.02 37.0907 49.5997 38.4391 48.8868 40.1662C48.1711 41.8932 48.2236 43.8495 49.0249 45.5378L52.0092 51.8103L51.8158 52.0038L45.5405 49.025C43.8522 48.2237 41.8958 48.174 40.1688 48.8896C38.4418 49.6053 37.0934 51.0256 36.4689 52.7858L34.145 59.3318L33.8715 59.3318L31.5421 52.7858C30.9148 51.0256 29.5664 49.6053 27.8394 48.8924C26.1123 48.1767 24.156 48.2292 22.4677 49.0306L16.1952 52.0148L16.0017 51.8214L18.9805 45.5461C19.7818 43.8578 19.8315 41.8987 19.1159 40.1744C18.4002 38.4474 16.9799 37.099 15.2197 36.4745L8.67368 34.1479L8.67368 33.8743L15.2197 31.5449C16.9799 30.9177 18.4002 29.5664 19.1131 27.8422C19.826 26.1152 19.7763 24.1588 18.9722 22.4705L15.9879 16.198L15.9907 16.198Z" fill="white"/>
</svg>
