<svg width="831" height="831" viewBox="0 0 831 831" fill="none" xmlns="http://www.w3.org/2000/svg">
<g opacity="0.39">
<mask id="path-1-inside-1_246_5449" fill="white">
<path d="M718.492 700.041L718.382 700.151L699.857 718.639C681.149 737.311 652.553 742.236 628.699 730.879L535.083 686.331C531.959 684.861 529.202 685.412 527.475 686.148C525.711 686.883 523.358 688.426 522.219 691.698L487.448 789.393C478.59 814.276 454.883 831.037 428.419 831H402.25C375.823 831 352.116 814.24 343.258 789.32L308.561 691.624C307.421 688.39 305.069 686.809 303.305 686.074C301.54 685.339 298.784 684.787 295.659 686.258L202.007 730.732C178.153 742.089 149.557 737.127 130.849 718.419L112.361 699.894C93.6892 681.222 88.7641 652.59 100.121 628.736L144.669 535.12C146.139 531.996 145.588 529.239 144.853 527.475C144.117 525.711 142.574 523.358 139.302 522.219L41.607 487.449C16.6869 478.59 0 454.883 0 428.42V402.25C0 375.823 16.7604 352.115 41.6805 343.257L139.376 308.561C142.61 307.421 144.154 305.069 144.926 303.305C145.661 301.54 146.212 298.784 144.742 295.659L100.268 202.007C88.9477 178.19 93.873 149.631 112.471 130.922L112.581 130.812L131.069 112.324C149.778 93.6157 178.373 88.7273 202.264 100.085L295.88 144.632C299.004 146.102 301.761 145.551 303.525 144.816C305.289 144.081 307.605 142.537 308.781 139.302L343.552 41.607C352.446 16.687 376.154 -0.0366948 402.581 6.04639e-05H428.75C455.177 6.04639e-05 478.884 16.7604 487.742 41.6805L522.439 139.376C523.579 142.611 525.931 144.191 527.695 144.926C529.46 145.661 532.216 146.213 535.341 144.742L628.993 100.268C652.847 88.911 681.443 93.873 700.151 112.581L718.639 131.106C737.311 149.815 742.236 178.41 730.879 202.264L686.331 295.88C684.861 299.004 685.412 301.761 686.147 303.525C686.882 305.289 688.426 307.642 691.697 308.781L789.393 343.552C814.313 352.41 831.037 376.153 831 402.581V428.75C831 455.177 814.24 478.884 789.356 487.742L691.624 522.439C688.389 523.579 686.809 525.931 686.074 527.695C685.339 529.46 684.788 532.216 686.258 535.341L730.732 628.993C742.052 652.81 737.164 681.369 718.529 700.078L718.492 700.041ZM652.296 655.052L654.869 652.48L615.247 569.008C604.587 546.551 603.926 520.528 613.446 497.556C622.965 474.584 641.857 456.648 665.27 448.341L752.344 417.43V413.791L665.27 382.806C641.857 374.463 622.965 356.526 613.482 333.554C603.963 310.582 604.661 284.559 615.32 262.102L655.016 178.667L652.443 176.095L568.971 215.717C546.514 226.376 520.491 227.037 497.519 217.518C474.547 207.998 456.611 189.106 448.304 165.693L417.356 78.6196H413.717L382.733 165.693C374.389 189.106 356.453 207.998 333.481 217.481C310.509 227.001 284.486 226.302 262.028 215.643L178.594 175.947L176.021 178.52L215.643 261.992C226.302 284.449 226.964 310.472 217.444 333.444C207.925 356.416 189.032 374.353 165.619 382.659L78.546 413.57V417.209L165.619 448.194C189.032 456.537 207.925 474.474 217.407 497.446C226.927 520.418 226.229 546.441 215.57 568.898L175.874 652.333L178.447 654.905L261.918 615.283C284.376 604.624 310.435 603.963 333.37 613.482C356.342 623.002 374.279 641.894 382.586 665.307L413.534 752.38H417.172L448.157 665.307C456.5 641.894 474.474 623.002 497.409 613.519C520.381 604.036 546.404 604.698 568.861 615.394L652.296 655.089V655.052Z"/>
</mask>
<path d="M718.492 700.041L718.382 700.151L699.857 718.639C681.149 737.311 652.553 742.236 628.699 730.879L535.083 686.331C531.959 684.861 529.202 685.412 527.475 686.148C525.711 686.883 523.358 688.426 522.219 691.698L487.448 789.393C478.59 814.276 454.883 831.037 428.419 831H402.25C375.823 831 352.116 814.24 343.258 789.32L308.561 691.624C307.421 688.39 305.069 686.809 303.305 686.074C301.54 685.339 298.784 684.787 295.659 686.258L202.007 730.732C178.153 742.089 149.557 737.127 130.849 718.419L112.361 699.894C93.6892 681.222 88.7641 652.59 100.121 628.736L144.669 535.12C146.139 531.996 145.588 529.239 144.853 527.475C144.117 525.711 142.574 523.358 139.302 522.219L41.607 487.449C16.6869 478.59 0 454.883 0 428.42V402.25C0 375.823 16.7604 352.115 41.6805 343.257L139.376 308.561C142.61 307.421 144.154 305.069 144.926 303.305C145.661 301.54 146.212 298.784 144.742 295.659L100.268 202.007C88.9477 178.19 93.873 149.631 112.471 130.922L112.581 130.812L131.069 112.324C149.778 93.6157 178.373 88.7273 202.264 100.085L295.88 144.632C299.004 146.102 301.761 145.551 303.525 144.816C305.289 144.081 307.605 142.537 308.781 139.302L343.552 41.607C352.446 16.687 376.154 -0.0366948 402.581 6.04639e-05H428.75C455.177 6.04639e-05 478.884 16.7604 487.742 41.6805L522.439 139.376C523.579 142.611 525.931 144.191 527.695 144.926C529.46 145.661 532.216 146.213 535.341 144.742L628.993 100.268C652.847 88.911 681.443 93.873 700.151 112.581L718.639 131.106C737.311 149.815 742.236 178.41 730.879 202.264L686.331 295.88C684.861 299.004 685.412 301.761 686.147 303.525C686.882 305.289 688.426 307.642 691.697 308.781L789.393 343.552C814.313 352.41 831.037 376.153 831 402.581V428.75C831 455.177 814.24 478.884 789.356 487.742L691.624 522.439C688.389 523.579 686.809 525.931 686.074 527.695C685.339 529.46 684.788 532.216 686.258 535.341L730.732 628.993C742.052 652.81 737.164 681.369 718.529 700.078L718.492 700.041ZM652.296 655.052L654.869 652.48L615.247 569.008C604.587 546.551 603.926 520.528 613.446 497.556C622.965 474.584 641.857 456.648 665.27 448.341L752.344 417.43V413.791L665.27 382.806C641.857 374.463 622.965 356.526 613.482 333.554C603.963 310.582 604.661 284.559 615.32 262.102L655.016 178.667L652.443 176.095L568.971 215.717C546.514 226.376 520.491 227.037 497.519 217.518C474.547 207.998 456.611 189.106 448.304 165.693L417.356 78.6196H413.717L382.733 165.693C374.389 189.106 356.453 207.998 333.481 217.481C310.509 227.001 284.486 226.302 262.028 215.643L178.594 175.947L176.021 178.52L215.643 261.992C226.302 284.449 226.964 310.472 217.444 333.444C207.925 356.416 189.032 374.353 165.619 382.659L78.546 413.57V417.209L165.619 448.194C189.032 456.537 207.925 474.474 217.407 497.446C226.927 520.418 226.229 546.441 215.57 568.898L175.874 652.333L178.447 654.905L261.918 615.283C284.376 604.624 310.435 603.963 333.37 613.482C356.342 623.002 374.279 641.894 382.586 665.307L413.534 752.38H417.172L448.157 665.307C456.5 641.894 474.474 623.002 497.409 613.519C520.381 604.036 546.404 604.698 568.861 615.394L652.296 655.089V655.052Z" stroke="#1A6393" stroke-width="2.16971" mask="url(#path-1-inside-1_246_5449)"/>
</g>
</svg>
