<svg width="201" height="44" viewBox="0 0 201 44" fill="none" xmlns="http://www.w3.org/2000/svg">
<g clip-path="url(#clip0_246_5746)">
<path d="M51.8687 12.5611H54.7V14.2924C55.5989 13.0262 57.2305 12.2603 59.497 12.2603C63.2605 12.2603 65.7596 14.7907 65.7596 18.6889V29.5806H62.9283V19.322C62.9283 16.4574 61.5624 14.9255 58.864 14.9255C56.5993 14.9255 54.7 16.1584 54.7 19.322V29.5806H51.8687V12.5611Z" fill="white"/>
<path d="M70.0898 22.7532V19.3885C70.0898 14.859 72.8548 12.2603 77.1184 12.2603C81.1144 12.2603 84.0122 14.525 84.0805 19.3885V22.0869H72.923V22.7532C72.923 26.2177 74.6543 27.2162 77.1202 27.2162C79.1856 27.2162 80.9169 26.4835 81.2178 24.2187H84.0491C83.7501 27.8161 80.8855 29.8814 77.1202 29.8814C72.8566 29.8814 70.0917 27.2827 70.0917 22.7532H70.0898ZM81.2473 19.5896V19.3903C81.1808 15.9923 79.348 14.8609 77.1165 14.8609C74.6525 14.8609 72.9194 15.9942 72.9194 19.3903V19.5896H81.2454H81.2473Z" fill="white"/>
<path d="M99.2672 12.561H102.099V23.4527C102.099 27.349 99.701 29.8814 95.2712 29.8814C90.8415 29.8814 88.4106 27.3509 88.4106 23.4527V12.561H91.242V22.8196C91.242 25.6842 92.5082 27.2161 95.2731 27.2161C98.038 27.2161 99.2709 25.6842 99.2709 22.8196V12.561H99.2672Z" fill="white"/>
<path d="M107.763 12.561H110.595V14.5267C111.427 13.2938 112.66 12.561 114.925 12.561H116.623V15.3924H114.925C112.361 15.3924 110.595 16.8247 110.595 20.3556V29.5824H107.763V12.5629V12.561Z" fill="white"/>
<path d="M119.454 22.7532V19.3885C119.454 14.859 122.185 12.2603 126.449 12.2603C128.147 12.2603 129.579 12.7604 130.646 13.6925V12.5593H133.477V29.5787H130.646V28.4455C129.581 29.3775 128.149 29.8777 126.449 29.8777C122.185 29.8777 119.454 27.279 119.454 22.7495V22.7532ZM126.449 27.2162C128.747 27.2162 130.646 26.2177 130.646 22.7532V19.3885C130.646 16.2581 128.747 14.9255 126.449 14.9255C123.985 14.9255 122.285 16.2581 122.285 19.3885V22.7532C122.285 26.2177 123.983 27.2162 126.449 27.2162Z" fill="white"/>
<path d="M137.806 23.9531H140.604C140.604 26.2178 142.336 27.2163 144.768 27.2163C147.201 27.2163 148.665 26.1845 148.665 24.7523C148.665 23.7205 147.932 22.9877 146.4 22.5872L142.404 21.5887C139.973 20.9888 138.508 19.4901 138.508 17.0593C138.508 14.3608 140.706 12.2622 144.602 12.2622C148.498 12.2622 151.097 14.5269 151.097 17.7588H148.366C148.266 15.7599 146.734 14.8278 144.602 14.8278C142.337 14.8278 141.204 15.8263 141.204 17.0593C141.204 18.2922 142.169 18.7573 143.369 19.0582L147 19.9571C149.898 20.6898 151.496 22.1553 151.496 24.7541C151.496 27.6851 148.999 29.8834 144.768 29.8834C140.538 29.8834 137.908 27.9177 137.806 23.9549V23.9531Z" fill="white"/>
<path d="M154.827 22.7532V19.3885C154.827 14.859 157.592 12.2603 161.856 12.2603C165.852 12.2603 168.749 14.525 168.818 19.3885V22.0869H157.66V22.7532C157.66 26.2177 159.392 27.2162 161.858 27.2162C163.923 27.2162 165.654 26.4835 165.955 24.2187H168.786C168.487 27.8161 165.623 29.8814 161.858 29.8814C157.594 29.8814 154.829 27.2827 154.829 22.7532H154.827ZM165.985 19.5896V19.3903C165.918 15.9923 164.085 14.8609 161.854 14.8609C159.39 14.8609 157.657 15.9942 157.657 19.3903V19.5896H165.983H165.985Z" fill="white"/>
<path d="M173.48 12.561H176.311V14.5267C177.144 13.2938 178.377 12.561 180.641 12.561H182.339V15.3924H180.641C178.076 15.3924 176.311 16.8247 176.311 20.3556V29.5824H173.48V12.5629V12.561Z" fill="white"/>
<path d="M184.839 12.561H187.936L192.932 28.7481L197.929 12.561H201.026L195.496 29.5805H190.367L184.837 12.561H184.839Z" fill="white"/>
<path d="M36.0212 35.3559L36.0157 35.3615L35.0855 36.2899C34.146 37.2275 32.71 37.4748 31.5121 36.9045L26.8111 34.6675C26.6542 34.5936 26.5157 34.6213 26.429 34.6582C26.3404 34.6952 26.2223 34.7727 26.1651 34.937L24.419 39.8429C23.9742 41.0924 22.7837 41.9341 21.4547 41.9323H20.1406C18.8135 41.9323 17.623 41.0906 17.1782 39.8392L15.4358 34.9333C15.3786 34.7708 15.2605 34.6915 15.1719 34.6545C15.0833 34.6176 14.9449 34.5899 14.788 34.6638L10.0851 36.8971C8.88718 37.4674 7.45119 37.2183 6.51172 36.2788L5.58332 35.3485C4.64569 34.4109 4.39836 32.9731 4.96869 31.7752L7.20571 27.0741C7.27954 26.9172 7.25185 26.7788 7.21494 26.6902C7.17803 26.6016 7.1005 26.4835 6.93623 26.4263L2.03029 24.6802C0.778881 24.2354 -0.059082 23.0449 -0.059082 21.716V20.4018C-0.059082 19.0747 0.78257 17.8842 2.03398 17.4394L6.93993 15.6971C7.10235 15.6398 7.17987 15.5217 7.21863 15.4331C7.25554 15.3445 7.28323 15.2061 7.2094 15.0492L4.97607 10.3463C4.40758 9.15025 4.65491 7.71612 5.58885 6.77664L5.59439 6.7711L6.52279 5.8427C7.46227 4.90323 8.89824 4.65775 10.098 5.22808L14.799 7.4651C14.9559 7.53893 15.0944 7.51124 15.183 7.47433C15.2716 7.43741 15.3878 7.35989 15.4469 7.19747L17.193 2.29152C17.6396 1.04011 18.8301 0.200306 20.1572 0.202151H21.4714C22.7984 0.202151 23.9889 1.0438 24.4338 2.29521L26.1761 7.20116C26.2333 7.36359 26.3515 7.44295 26.4401 7.47986C26.5287 7.51678 26.6671 7.54447 26.824 7.47064L31.5269 5.2373C32.7248 4.66697 34.1607 4.91615 35.1002 5.85562L36.0286 6.78587C36.9663 7.72535 37.2136 9.16132 36.6433 10.3592L34.4062 15.0603C34.3324 15.2172 34.3601 15.3556 34.397 15.4442C34.4339 15.5328 34.5114 15.6509 34.6757 15.7081L39.5817 17.4542C40.8331 17.899 41.6729 19.0914 41.671 20.4184V21.7326C41.671 23.0597 40.8294 24.2502 39.5798 24.695L34.672 26.4374C34.5096 26.4946 34.4302 26.6127 34.3933 26.7013C34.3564 26.7899 34.3287 26.9283 34.4025 27.0852L36.6359 31.7881C37.2044 32.9842 36.9589 34.4183 36.0231 35.3578L36.0212 35.3559ZM32.6971 33.0968L32.8263 32.9675L30.8366 28.7759C30.3013 27.6482 30.2681 26.3414 30.7462 25.1878C31.2242 24.0342 32.1729 23.1335 33.3486 22.7164L37.7212 21.1641V20.9814L33.3486 19.4254C32.1729 19.0064 31.2242 18.1057 30.748 16.9522C30.27 15.7986 30.305 14.4918 30.8403 13.3641L32.8337 9.17425L32.7045 9.04504L28.5128 11.0347C27.3851 11.57 26.0783 11.6032 24.9247 11.1252C23.7711 10.6471 22.8704 9.69843 22.4533 8.52271L20.8992 4.15017H20.7165L19.1605 8.52271C18.7415 9.69843 17.8408 10.6471 16.6872 11.1233C15.5336 11.6014 14.2269 11.5663 13.0991 11.0311L8.90932 9.03766L8.78012 9.16686L10.7698 13.3585C11.3051 14.4863 11.3383 15.793 10.8603 16.9466C10.3822 18.1002 9.43351 19.0009 8.25778 19.418L3.88524 20.9703V21.153L8.25778 22.709C9.43351 23.128 10.3822 24.0287 10.8584 25.1823C11.3365 26.3358 11.3014 27.6426 10.7661 28.7704L8.77274 32.9602L8.90194 33.0894L13.0936 31.0997C14.2213 30.5644 15.53 30.5312 16.6817 31.0092C17.8353 31.4873 18.736 32.436 19.1531 33.6117L20.7072 37.9842H20.89L22.4459 33.6117C22.8649 32.436 23.7674 31.4873 24.9192 31.0111C26.0728 30.5349 27.3795 30.5681 28.5073 31.1052L32.6971 33.0986V33.0968Z" fill="white"/>
</g>
<defs>
<clipPath id="clip0_246_5746">
<rect width="201" height="43.7438" fill="white" transform="translate(0 0.128174)"/>
</clipPath>
</defs>
</svg>
